<?xml version="1.0" encoding="utf-8"?>
<!DOCTYPE svg PUBLIC "-//W3C//DTD SVG 1.1//EN" "http://www.w3.org/Graphics/SVG/1.1/DTD/svg11.dtd">
<svg version="1.1" id="Rikitlab" xmlns="http://www.w3.org/2000/svg" xmlns:xlink="http://www.w3.org/1999/xlink" x="0px" y="0px"
	 viewBox="0 0 650 143" enable-background="new 0 0 650 143" xml:space="preserve">
<g>
	<path fill="#222F5B" d="M57.384,111.533v1.05c-1.901,0.8-4.102,1.351-6.6,1.65l-1.35-0.75c-7.402-9.999-13.901-19.599-19.5-28.8
		l-15.3,0.149v5.4l0.15,23.1h-7.35l0.3-22.5l-0.3-51.75l21.9-0.15c7.598,0,13.448,1.826,17.55,5.475
		c4.099,3.651,6.15,8.826,6.15,15.525c0,5.301-1.451,9.952-4.35,13.95c-2.902,4.001-7.05,7.051-12.45,9.15
		C42.534,92.535,49.584,102.034,57.384,111.533z M14.634,78.533l15.6,0.3c4.999-1.298,8.775-3.499,11.325-6.6
		c2.55-3.098,3.825-6.999,3.825-11.7c0-9.799-5.751-15-17.25-15.6l-13.2,0.3L14.634,78.533z"/>
	<path fill="#222F5B" d="M112.733,90.233l0.15,23.1h-7.35l0.3-22.5l-0.3-51.75h7.5L112.733,90.233z"/>
	<path fill="#222F5B" d="M175.882,90.233l0.149,23.1h-7.35l0.3-22.5l-0.3-51.75h7.5L175.882,90.233z M186.531,73.883
		c10.5,12.502,22.399,25.102,35.7,37.801l-0.15,1.05c-1.5,0.698-3.75,1.249-6.75,1.649l-1.199-0.449
		c-13.5-13.699-25.5-26.899-36-39.601v-0.6l27.899-28.5l5.101-6.15h9.149L186.531,73.883z"/>
	<path fill="#222F5B" d="M272.781,90.233l0.149,23.1h-7.35l0.3-22.5l-0.3-51.75h7.5L272.781,90.233z"/>
	<path fill="#222F5B" d="M373.579,39.983l-0.6,6l-13.351-0.6h-9.3l-0.3,44.851l0.3,23.1h-7.35l0.149-22.5l-0.149-45.45h-9.15
		l-13.649,0.6l-0.601-0.75l0.601-6.15h52.949L373.579,39.983z"/>
	<path fill="#222F5B" d="M457.43,107.783l-0.75,5.55h-37.351l0.15-22.5l-0.15-51.75h7.351l-0.301,51.15l0.15,16.8h30.3
		L457.43,107.783z"/>
	<path fill="#222F5B" d="M642.775,92.633c0,6.9-2.625,12.127-7.875,15.676c-5.25,3.551-12.877,5.324-22.875,5.324
		c-7.5,0-13.001-0.101-16.5-0.3l0.3-22.5l-0.3-51.75l19.8-0.15c6.998,0,12.45,1.526,16.35,4.575c3.9,3.052,5.851,7.425,5.851,13.125
		c0,8.801-4.001,14.801-12,18C637.023,76.534,642.775,82.534,642.775,92.633z M629.351,103.883c3.949-2.699,5.925-6.548,5.925-11.55
		c0-8.299-5.55-13.05-16.65-14.25l-16.05,0.3v11.851l0.15,17.25c3.3,0.3,6.548,0.45,9.75,0.45
		C619.773,107.934,625.398,106.583,629.351,103.883z M625.675,48.083c-2.699-2.1-6.651-3.15-11.85-3.15h-10.95l-0.149,27l14.55,0.3
		c8.299-1.5,12.45-6.45,12.45-14.85C629.726,53.284,628.375,50.183,625.675,48.083z"/>
</g>
<polygon fill="#006837" stroke="#BCD6ED" stroke-width="3" stroke-linecap="round" stroke-linejoin="round" stroke-miterlimit="10" points="
	488.505,92.011 526,28.166 563.495,92.011 "/>
<polygon fill="#003512" stroke="#BCD6ED" stroke-width="3" stroke-linecap="round" stroke-linejoin="round" stroke-miterlimit="10" points="
	493.235,114.848 488.505,98.298 563.495,98.298 558.765,114.848 "/>
</svg>
